<svg width="124" height="13" viewBox="0 0 124 13" fill="none" xmlns="http://www.w3.org/2000/svg">
<path d="M3.63636 9.95455V2.45455H4.90909V9.95455H3.63636ZM0.522727 6.84091V5.56818H8.02273V6.84091H0.522727ZM15.9332 12H14.456L18.7287 0.363636H20.1832L24.456 12H22.9787L19.5014 2.20455H19.4105L15.9332 12ZM16.4787 7.45455H22.4332V8.70455H16.4787V7.45455ZM29.3821 12.1818C28.6548 12.1818 28.0128 11.9981 27.456 11.6307C26.8991 11.2595 26.4635 10.7367 26.1491 10.0625C25.8348 9.38447 25.6776 8.58333 25.6776 7.65909C25.6776 6.74242 25.8348 5.94697 26.1491 5.27273C26.4635 4.59848 26.901 4.07765 27.4616 3.71023C28.0223 3.3428 28.67 3.15909 29.4048 3.15909C29.973 3.15909 30.4219 3.25379 30.7514 3.44318C31.0848 3.62879 31.3385 3.84091 31.5128 4.07955C31.6908 4.31439 31.8291 4.50758 31.9276 4.65909H32.0412V0.363636H33.3821V12H32.0866V10.6591H31.9276C31.8291 10.8182 31.6889 11.0189 31.5071 11.2614C31.3253 11.5 31.0658 11.714 30.7287 11.9034C30.3916 12.089 29.9427 12.1818 29.3821 12.1818ZM29.5639 10.9773C30.1018 10.9773 30.5563 10.8371 30.9276 10.5568C31.2988 10.2727 31.581 9.88068 31.7741 9.38068C31.9673 8.87689 32.0639 8.29545 32.0639 7.63636C32.0639 6.98485 31.9692 6.41477 31.7798 5.92614C31.5904 5.43371 31.3101 5.05114 30.9389 4.77841C30.5677 4.50189 30.1094 4.36364 29.5639 4.36364C28.9957 4.36364 28.5223 4.50947 28.1435 4.80114C27.7685 5.08902 27.4863 5.48106 27.2969 5.97727C27.1113 6.4697 27.0185 7.02273 27.0185 7.63636C27.0185 8.25758 27.1132 8.82197 27.3026 9.32955C27.4957 9.83333 27.7798 10.2348 28.1548 10.5341C28.5336 10.8295 29.0033 10.9773 29.5639 10.9773ZM39.3196 12.1818C38.5923 12.1818 37.9503 11.9981 37.3935 11.6307C36.8366 11.2595 36.401 10.7367 36.0866 10.0625C35.7723 9.38447 35.6151 8.58333 35.6151 7.65909C35.6151 6.74242 35.7723 5.94697 36.0866 5.27273C36.401 4.59848 36.8385 4.07765 37.3991 3.71023C37.9598 3.3428 38.6075 3.15909 39.3423 3.15909C39.9105 3.15909 40.3594 3.25379 40.6889 3.44318C41.0223 3.62879 41.276 3.84091 41.4503 4.07955C41.6283 4.31439 41.7666 4.50758 41.8651 4.65909H41.9787V0.363636H43.3196V12H42.0241V10.6591H41.8651C41.7666 10.8182 41.6264 11.0189 41.4446 11.2614C41.2628 11.5 41.0033 11.714 40.6662 11.9034C40.3291 12.089 39.8802 12.1818 39.3196 12.1818ZM39.5014 10.9773C40.0393 10.9773 40.4938 10.8371 40.8651 10.5568C41.2363 10.2727 41.5185 9.88068 41.7116 9.38068C41.9048 8.87689 42.0014 8.29545 42.0014 7.63636C42.0014 6.98485 41.9067 6.41477 41.7173 5.92614C41.5279 5.43371 41.2476 5.05114 40.8764 4.77841C40.5052 4.50189 40.0469 4.36364 39.5014 4.36364C38.9332 4.36364 38.4598 4.50947 38.081 4.80114C37.706 5.08902 37.4238 5.48106 37.2344 5.97727C37.0488 6.4697 36.956 7.02273 36.956 7.63636C36.956 8.25758 37.0507 8.82197 37.2401 9.32955C37.4332 9.83333 37.7173 10.2348 38.0923 10.5341C38.4711 10.8295 38.9408 10.9773 39.5014 10.9773ZM50.4616 12V3.27273H51.7571V4.63636H51.8707C52.0526 4.17045 52.3461 3.80871 52.7514 3.55114C53.1567 3.28977 53.6435 3.15909 54.2116 3.15909C54.7874 3.15909 55.2666 3.28977 55.6491 3.55114C56.0355 3.80871 56.3366 4.17045 56.5526 4.63636H56.6435C56.867 4.18561 57.2022 3.82765 57.6491 3.5625C58.0961 3.29356 58.6321 3.15909 59.2571 3.15909C60.0374 3.15909 60.6757 3.40341 61.1719 3.89205C61.6681 4.37689 61.9162 5.13258 61.9162 6.15909V12H60.5753V6.15909C60.5753 5.51515 60.3991 5.05492 60.0469 4.77841C59.6946 4.50189 59.2798 4.36364 58.8026 4.36364C58.1889 4.36364 57.7135 4.54924 57.3764 4.92045C57.0393 5.28788 56.8707 5.75379 56.8707 6.31818V12H55.5071V6.02273C55.5071 5.52652 55.3461 5.12689 55.0241 4.82386C54.7022 4.51705 54.2874 4.36364 53.7798 4.36364C53.4313 4.36364 53.1056 4.45644 52.8026 4.64205C52.5033 4.82765 52.2609 5.08523 52.0753 5.41477C51.8935 5.74053 51.8026 6.11742 51.8026 6.54545V12H50.4616ZM67.9134 12.1818C67.1255 12.1818 66.4342 11.9943 65.8395 11.6193C65.2486 11.2443 64.7865 10.7197 64.4531 10.0455C64.1236 9.37121 63.9588 8.58333 63.9588 7.68182C63.9588 6.77273 64.1236 5.97917 64.4531 5.30114C64.7865 4.62311 65.2486 4.09659 65.8395 3.72159C66.4342 3.34659 67.1255 3.15909 67.9134 3.15909C68.7012 3.15909 69.3906 3.34659 69.9815 3.72159C70.5762 4.09659 71.0384 4.62311 71.3679 5.30114C71.7012 5.97917 71.8679 6.77273 71.8679 7.68182C71.8679 8.58333 71.7012 9.37121 71.3679 10.0455C71.0384 10.7197 70.5762 11.2443 69.9815 11.6193C69.3906 11.9943 68.7012 12.1818 67.9134 12.1818ZM67.9134 10.9773C68.5118 10.9773 69.0043 10.8239 69.3906 10.517C69.777 10.2102 70.063 9.80682 70.2486 9.30682C70.4342 8.80682 70.527 8.26515 70.527 7.68182C70.527 7.09848 70.4342 6.55492 70.2486 6.05114C70.063 5.54735 69.777 5.14015 69.3906 4.82955C69.0043 4.51894 68.5118 4.36364 67.9134 4.36364C67.3149 4.36364 66.8224 4.51894 66.4361 4.82955C66.0497 5.14015 65.7637 5.54735 65.5781 6.05114C65.3925 6.55492 65.2997 7.09848 65.2997 7.68182C65.2997 8.26515 65.3925 8.80682 65.5781 9.30682C65.7637 9.80682 66.0497 10.2102 66.4361 10.517C66.8224 10.8239 67.3149 10.9773 67.9134 10.9773ZM73.9148 12V3.27273H75.2102V4.59091H75.3011C75.4602 4.15909 75.7481 3.80871 76.1648 3.53977C76.5814 3.27083 77.0511 3.13636 77.5739 3.13636C77.6723 3.13636 77.7955 3.13826 77.9432 3.14205C78.0909 3.14583 78.2027 3.15152 78.2784 3.15909V4.52273C78.233 4.51136 78.1288 4.49432 77.9659 4.47159C77.8068 4.44508 77.6383 4.43182 77.4602 4.43182C77.036 4.43182 76.6572 4.52083 76.3239 4.69886C75.9943 4.87311 75.733 5.11553 75.5398 5.42614C75.3504 5.73295 75.2557 6.08333 75.2557 6.47727V12H73.9148ZM83.2614 12.1818C82.4205 12.1818 81.6951 11.9962 81.0852 11.625C80.4792 11.25 80.0114 10.7273 79.6818 10.0568C79.3561 9.38258 79.1932 8.59848 79.1932 7.70455C79.1932 6.81061 79.3561 6.02273 79.6818 5.34091C80.0114 4.6553 80.4697 4.12121 81.0568 3.73864C81.6477 3.35227 82.3371 3.15909 83.125 3.15909C83.5795 3.15909 84.0284 3.23485 84.4716 3.38636C84.9148 3.53788 85.3182 3.78409 85.6818 4.125C86.0455 4.46212 86.3352 4.90909 86.5511 5.46591C86.767 6.02273 86.875 6.70833 86.875 7.52273V8.09091H80.1477V6.93182H85.5114C85.5114 6.43939 85.4129 6 85.2159 5.61364C85.0227 5.22727 84.7462 4.92235 84.3864 4.69886C84.0303 4.47538 83.6098 4.36364 83.125 4.36364C82.5909 4.36364 82.1288 4.49621 81.7386 4.76136C81.3523 5.02273 81.0549 5.36364 80.8466 5.78409C80.6383 6.20455 80.5341 6.6553 80.5341 7.13636V7.90909C80.5341 8.56818 80.6477 9.12689 80.875 9.58523C81.1061 10.0398 81.4261 10.3864 81.8352 10.625C82.2443 10.8598 82.7197 10.9773 83.2614 10.9773C83.6136 10.9773 83.9318 10.928 84.2159 10.8295C84.5038 10.7273 84.7519 10.5758 84.9602 10.375C85.1686 10.1705 85.3295 9.91667 85.4432 9.61364L86.7386 9.97727C86.6023 10.4167 86.3731 10.803 86.0511 11.1364C85.7292 11.4659 85.3314 11.7235 84.858 11.9091C84.3845 12.0909 83.8523 12.1818 83.2614 12.1818ZM93.4148 12V3.27273H94.7557V12H93.4148ZM94.0966 1.81818C93.8352 1.81818 93.6098 1.72917 93.4205 1.55114C93.2348 1.37311 93.142 1.15909 93.142 0.909091C93.142 0.659091 93.2348 0.445076 93.4205 0.267045C93.6098 0.089015 93.8352 0 94.0966 0C94.358 0 94.5814 0.089015 94.767 0.267045C94.9564 0.445076 95.0511 0.659091 95.0511 0.909091C95.0511 1.15909 94.9564 1.37311 94.767 1.55114C94.5814 1.72917 94.358 1.81818 94.0966 1.81818ZM101.007 3.27273V4.40909H96.4844V3.27273H101.007ZM97.8026 1.18182H99.1435V9.5C99.1435 9.87879 99.1984 10.1629 99.3082 10.3523C99.4219 10.5379 99.5658 10.6629 99.7401 10.7273C99.9181 10.7879 100.106 10.8182 100.303 10.8182C100.45 10.8182 100.571 10.8106 100.666 10.7955C100.761 10.7765 100.837 10.7614 100.893 10.75L101.166 11.9545C101.075 11.9886 100.948 12.0227 100.786 12.0568C100.623 12.0947 100.416 12.1136 100.166 12.1136C99.7874 12.1136 99.4162 12.0322 99.0526 11.8693C98.6927 11.7064 98.3935 11.4583 98.1548 11.125C97.92 10.7917 97.8026 10.3712 97.8026 9.86364V1.18182ZM106.589 12.1818C105.749 12.1818 105.023 11.9962 104.413 11.625C103.807 11.25 103.339 10.7273 103.01 10.0568C102.684 9.38258 102.521 8.59848 102.521 7.70455C102.521 6.81061 102.684 6.02273 103.01 5.34091C103.339 4.6553 103.798 4.12121 104.385 3.73864C104.976 3.35227 105.665 3.15909 106.453 3.15909C106.908 3.15909 107.357 3.23485 107.8 3.38636C108.243 3.53788 108.646 3.78409 109.01 4.125C109.374 4.46212 109.663 4.90909 109.879 5.46591C110.095 6.02273 110.203 6.70833 110.203 7.52273V8.09091H103.476V6.93182H108.839C108.839 6.43939 108.741 6 108.544 5.61364C108.351 5.22727 108.074 4.92235 107.714 4.69886C107.358 4.47538 106.938 4.36364 106.453 4.36364C105.919 4.36364 105.457 4.49621 105.067 4.76136C104.68 5.02273 104.383 5.36364 104.175 5.78409C103.966 6.20455 103.862 6.6553 103.862 7.13636V7.90909C103.862 8.56818 103.976 9.12689 104.203 9.58523C104.434 10.0398 104.754 10.3864 105.163 10.625C105.572 10.8598 106.048 10.9773 106.589 10.9773C106.942 10.9773 107.26 10.928 107.544 10.8295C107.832 10.7273 108.08 10.5758 108.288 10.375C108.497 10.1705 108.658 9.91667 108.771 9.61364L110.067 9.97727C109.93 10.4167 109.701 10.803 109.379 11.1364C109.057 11.4659 108.66 11.7235 108.186 11.9091C107.713 12.0909 107.18 12.1818 106.589 12.1818ZM112.243 12V3.27273H113.538V4.63636H113.652C113.834 4.17045 114.127 3.80871 114.533 3.55114C114.938 3.28977 115.425 3.15909 115.993 3.15909C116.569 3.15909 117.048 3.28977 117.43 3.55114C117.817 3.80871 118.118 4.17045 118.334 4.63636H118.425C118.648 4.18561 118.983 3.82765 119.43 3.5625C119.877 3.29356 120.413 3.15909 121.038 3.15909C121.819 3.15909 122.457 3.40341 122.953 3.89205C123.449 4.37689 123.697 5.13258 123.697 6.15909V12H122.357V6.15909C122.357 5.51515 122.18 5.05492 121.828 4.77841C121.476 4.50189 121.061 4.36364 120.584 4.36364C119.97 4.36364 119.495 4.54924 119.158 4.92045C118.821 5.28788 118.652 5.75379 118.652 6.31818V12H117.288V6.02273C117.288 5.52652 117.127 5.12689 116.805 4.82386C116.483 4.51705 116.069 4.36364 115.561 4.36364C115.213 4.36364 114.887 4.45644 114.584 4.64205C114.285 4.82765 114.042 5.08523 113.857 5.41477C113.675 5.74053 113.584 6.11742 113.584 6.54545V12H112.243Z" fill="#3B5998"/>
</svg>
