<svg width="12" height="12" viewBox="0 0 12 12" fill="none" xmlns="http://www.w3.org/2000/svg">
<path d="M6.78212 5.99924L11.3877 1.39368C11.4787 1.2874 11.5263 1.15069 11.5209 1.01087C11.5155 0.871052 11.4575 0.738419 11.3585 0.639478C11.2596 0.540536 11.127 0.482574 10.9872 0.477173C10.8473 0.471772 10.7106 0.519332 10.6043 0.610346L5.99879 5.2159L1.39324 0.604791C1.28862 0.500177 1.14674 0.441406 0.998792 0.441406C0.850846 0.441406 0.70896 0.500177 0.604347 0.604791C0.499734 0.709404 0.440963 0.85129 0.440963 0.999235C0.440963 1.14718 0.499734 1.28907 0.604347 1.39368L5.21546 5.99924L0.604347 10.6048C0.546191 10.6546 0.498957 10.7159 0.465611 10.7848C0.432264 10.8537 0.413526 10.9288 0.41057 11.0053C0.407615 11.0818 0.420507 11.1581 0.448437 11.2294C0.476368 11.3007 0.518733 11.3655 0.572875 11.4196C0.627016 11.4737 0.691765 11.5161 0.763056 11.544C0.834348 11.572 0.910644 11.5849 0.987155 11.5819C1.06367 11.5789 1.13874 11.5602 1.20766 11.5269C1.27659 11.4935 1.33788 11.4463 1.38768 11.3881L5.99879 6.78257L10.6043 11.3881C10.7106 11.4791 10.8473 11.5267 10.9872 11.5213C11.127 11.5159 11.2596 11.4579 11.3585 11.359C11.4575 11.2601 11.5155 11.1274 11.5209 10.9876C11.5263 10.8478 11.4787 10.7111 11.3877 10.6048L6.78212 5.99924Z" fill="#888888"/>
</svg>
