<svg width="20" height="20" viewBox="0 0 20 20" fill="none" xmlns="http://www.w3.org/2000/svg">
<path d="M19.5984 9.99844C19.5984 12.5445 18.587 14.9863 16.7867 16.7867C14.9863 18.587 12.5445 19.5984 9.99844 19.5984C7.45236 19.5984 5.01056 18.587 3.21021 16.7867C1.40986 14.9863 0.398438 12.5445 0.398438 9.99844C0.398438 7.45236 1.40986 5.01056 3.21021 3.21021C5.01056 1.40986 7.45236 0.398438 9.99844 0.398438C12.5445 0.398438 14.9863 1.40986 16.7867 3.21021C18.587 5.01056 19.5984 7.45236 19.5984 9.99844ZM5.19844 9.99844C5.19844 10.1576 5.26165 10.3102 5.37417 10.4227C5.4867 10.5352 5.63931 10.5984 5.79844 10.5984H9.39844V14.1984C9.39844 14.3576 9.46165 14.5102 9.57417 14.6227C9.6867 14.7352 9.83931 14.7984 9.99844 14.7984C10.1576 14.7984 10.3102 14.7352 10.4227 14.6227C10.5352 14.5102 10.5984 14.3576 10.5984 14.1984V10.5984H14.1984C14.3576 10.5984 14.5102 10.5352 14.6227 10.4227C14.7352 10.3102 14.7984 10.1576 14.7984 9.99844C14.7984 9.83931 14.7352 9.6867 14.6227 9.57417C14.5102 9.46165 14.3576 9.39844 14.1984 9.39844H10.5984V5.79844C10.5984 5.63931 10.5352 5.4867 10.4227 5.37417C10.3102 5.26165 10.1576 5.19844 9.99844 5.19844C9.83931 5.19844 9.6867 5.26165 9.57417 5.37417C9.46165 5.4867 9.39844 5.63931 9.39844 5.79844V9.39844H5.79844C5.63931 9.39844 5.4867 9.46165 5.37417 9.57417C5.26165 9.6867 5.19844 9.83931 5.19844 9.99844Z" fill="#3B5998"/>
</svg>
