<svg width="32" height="32" viewBox="0 0 32 32" fill="none" xmlns="http://www.w3.org/2000/svg">
<circle cx="16" cy="16" r="15.5" fill="white" stroke="#3B5998"/>
<g clip-path="url(#clip0_8278_28592)">
<path d="M20.82 18.1733L19.1267 17.98C18.72 17.9333 18.32 18.0733 18.0334 18.36L16.8067 19.5867C14.92 18.6267 13.3734 17.0867 12.4134 15.1933L13.6467 13.96C13.9334 13.6733 14.0734 13.2733 14.0267 12.8667L13.8334 11.1867C13.7534 10.5133 13.1867 10.0067 12.5067 10.0067H11.3534C10.6 10.0067 9.97336 10.6333 10.02 11.3867C10.3734 17.08 14.9267 21.6267 20.6134 21.98C21.3667 22.0267 21.9934 21.4 21.9934 20.6467V19.4933C22 18.82 21.4934 18.2533 20.82 18.1733Z" fill="#3B5998"/>
</g>
<defs>
<clipPath id="clip0_8278_28592">
<rect width="16" height="16" fill="white" transform="translate(8 8)"/>
</clipPath>
</defs>
</svg>
