<svg width="160" height="89" viewBox="0 0 160 89" fill="none" xmlns="http://www.w3.org/2000/svg">
<path d="M152.14 1.76169C149.623 2.73764 131.166 9.82616 111.145 17.5311C91.1232 25.2189 74.5209 31.6396 74.2487 31.7937C72.7008 32.7012 72.5647 34.927 73.9936 35.9715C74.2317 36.1598 79.6241 38.3172 85.986 40.7828L97.5362 45.2859L97.6213 59.8396C97.7063 73.4859 97.7233 74.4276 98.0125 74.8556C99.0672 76.4822 101.534 76.3452 102.435 74.633C102.622 74.3077 104.834 69.9074 107.368 64.8564L111.995 55.6618L123.222 64.0516C129.397 68.6746 134.789 72.6811 135.198 72.938C136.473 73.7598 138.123 73.503 138.855 72.3729C138.991 72.1503 143.822 56.4152 149.589 37.3926C157.907 9.94601 160.05 2.66916 159.999 2.15549C159.897 1.35076 159.506 0.75148 158.808 0.323433C157.805 -0.292961 157.107 -0.138855 152.14 1.76169ZM139.382 12.2917C139.093 12.5486 100.615 40.0979 100.156 40.3547C99.7476 40.6116 99.3393 40.4746 91.1743 37.307C86.4623 35.475 82.686 33.9511 82.754 33.934C82.8391 33.8997 95.614 28.9857 111.145 23.0272C126.675 17.0517 139.416 12.1548 139.467 12.1548C139.501 12.1376 139.467 12.2061 139.382 12.2917ZM150.609 16.3668C139.722 52.4086 135.47 66.3631 135.368 66.4829C135.3 66.5514 134.024 65.7125 132.527 64.5995C117.047 53.0593 114.989 51.4669 115.108 51.2786C115.244 51.0389 151.715 12.3089 151.8 12.3089C151.817 12.3089 151.29 14.1409 150.609 16.3668ZM136.048 21.5034C134.364 23.267 110.685 48.4535 109.665 49.5493C109.086 50.1999 108.27 51.6382 106.416 55.3708C105.055 58.0932 103.66 60.8327 103.337 61.4491L102.724 62.562V53.727V44.8921L113.56 37.1187C119.531 32.8382 127.288 27.2906 130.792 24.7737C134.296 22.2568 137.205 20.185 137.239 20.185C137.29 20.185 136.746 20.7843 136.048 21.5034Z" fill="#176091"/>
<path d="M1 61.0153C5.98386 68.2973 21.0396 81.15 41.3916 74.3049C61.7436 67.4598 59.2442 56.282 55.4505 51.5487C50.4667 47.3615 38.5798 41.4995 30.9032 51.5487C23.2265 61.5978 32.3165 73.4553 37.8211 78.1279C44.8133 83.7714 63.3057 92.9831 81.3368 84.6817C99.368 76.3803 105.959 63.0178 107 57.3742" stroke="#176091" stroke-dasharray="6 6"/>
</svg>
