<svg width="12" height="13" viewBox="0 0 12 13" fill="none" xmlns="http://www.w3.org/2000/svg">
<path d="M6 4C6.27614 4 6.5 3.77614 6.5 3.5C6.5 3.22386 6.27614 3 6 3C5.72386 3 5.5 3.22386 5.5 3.5C5.5 3.77614 5.72386 4 6 4Z" fill="#888888"/>
<path d="M3 9H9V10H3V9ZM5 6.415L6.396 7.812L8.362 5.8445L9 6.5V4.5H7L7.655 5.1375L6.3955 6.397L5 5L3 7L3.707 7.707L5 6.415Z" fill="#888888"/>
<path d="M9.5 1.99999H7.851C7.80191 1.92607 7.74848 1.85511 7.691 1.78749L7.686 1.78149C7.31864 1.35362 6.80178 1.08214 6.241 1.02249C6.08176 0.992176 5.91824 0.992176 5.759 1.02249C5.19822 1.08214 4.68136 1.35362 4.314 1.78149L4.309 1.78749C4.25154 1.85495 4.19811 1.92574 4.149 1.99949V1.99999H2.5C2.1023 2.00039 1.721 2.15855 1.43978 2.43977C1.15856 2.72099 1.0004 3.10229 1 3.49999V10.5C1.0004 10.8977 1.15856 11.279 1.43978 11.5602C1.721 11.8414 2.1023 11.9996 2.5 12H9.5C9.8977 11.9996 10.279 11.8414 10.5602 11.5602C10.8414 11.279 10.9996 10.8977 11 10.5V3.49999C10.9996 3.10229 10.8414 2.72099 10.5602 2.43977C10.279 2.15855 9.8977 2.00039 9.5 1.99999ZM10 10.5C10 10.6326 9.94732 10.7598 9.85355 10.8535C9.75979 10.9473 9.63261 11 9.5 11H2.5C2.36743 10.9999 2.24033 10.9471 2.14659 10.8534C2.05285 10.7597 2.00013 10.6326 2 10.5V3.49999C2.00013 3.36743 2.05285 3.24033 2.14659 3.14659C2.24033 3.05285 2.36743 3.00013 2.5 2.99999H4.775C4.83238 2.71742 4.98568 2.46338 5.20894 2.2809C5.43219 2.09842 5.71166 1.99874 6 1.99874C6.28834 1.99874 6.56781 2.09842 6.79106 2.2809C7.01432 2.46338 7.16762 2.71742 7.225 2.99999H9.5C9.63257 3.00013 9.75967 3.05285 9.85341 3.14659C9.94715 3.24033 9.99987 3.36743 10 3.49999V10.5Z" fill="#888888"/>
</svg>
