<svg width="24" height="24" viewBox="0 0 24 24" fill="none" xmlns="http://www.w3.org/2000/svg">
<circle cx="12" cy="12" r="11.5" fill="white" stroke="#3B5998"/>
<path d="M16.062 7.58334L16.0623 7.58298C16.1628 7.48245 16.3241 7.48245 16.4246 7.58298C16.5175 7.67593 16.5175 7.84474 16.4246 7.93769L12.7158 11.6464L12.3623 12L12.7158 12.3536L16.4246 16.0623C16.5251 16.1628 16.5251 16.3241 16.4246 16.4246C16.3241 16.5251 16.1628 16.5251 16.0623 16.4246L12.3536 12.7158L12 12.3623L11.6464 12.7158L7.93769 16.4246C7.83716 16.5251 7.67592 16.5251 7.5754 16.4246C7.47487 16.3241 7.47487 16.1628 7.5754 16.0623L11.2842 12.3536L11.6377 12L11.2842 11.6464L7.5754 7.93769C7.47487 7.83716 7.47487 7.67592 7.5754 7.5754C7.67592 7.47487 7.83716 7.47487 7.93769 7.5754L11.6464 11.2842L11.9996 11.6373L12.3532 11.2845L16.062 7.58334Z" fill="#A7A7A7" stroke="#3B5998"/>
</svg>
