<svg width="26" height="33" viewBox="0 0 26 33" fill="none" xmlns="http://www.w3.org/2000/svg">
<path d="M13 33C14.7875 33 16.25 31.4769 16.25 29.6154H9.75C9.75 31.4769 11.2125 33 13 33ZM22.75 22.8462V14.3846C22.75 9.18923 20.1012 4.84 15.4375 3.68923V2.53846C15.4375 1.13385 14.3487 0 13 0C11.6513 0 10.5625 1.13385 10.5625 2.53846V3.68923C5.915 4.84 3.25 9.17231 3.25 14.3846V22.8462L0 26.2308V27.9231H26V26.2308L22.75 22.8462ZM19.5 24.5385H6.5V14.3846C6.5 10.1877 8.95375 6.76923 13 6.76923C17.0463 6.76923 19.5 10.1877 19.5 14.3846V24.5385Z" fill="#888888"/>
</svg>
