<svg width="18" height="18" viewBox="0 0 18 18" fill="none" xmlns="http://www.w3.org/2000/svg">
<path d="M14.25 2.24999H11.7765C11.7029 2.1391 11.6227 2.03266 11.5365 1.93124L11.529 1.92224C10.978 1.28043 10.2027 0.873205 9.3615 0.783742C9.12265 0.738264 8.87735 0.738264 8.6385 0.783742C7.79733 0.873205 7.02205 1.28043 6.471 1.92224L6.4635 1.93124C6.3773 2.03242 6.29716 2.13861 6.2235 2.24924L3.75 2.24999C3.15345 2.25059 2.5815 2.48783 2.15967 2.90966C1.73784 3.33149 1.5006 3.90344 1.5 4.49999V15C1.5006 15.5965 1.73784 16.1685 2.15967 16.5903C2.5815 17.0122 3.15345 17.2494 3.75 17.25H14.25C14.8466 17.2494 15.4185 17.0122 15.8403 16.5903C16.2622 16.1685 16.4994 15.5965 16.5 15V4.49999C16.4994 3.90344 16.2622 3.33149 15.8403 2.90966C15.4185 2.48783 14.8466 2.25059 14.25 2.24999ZM15 15C15 15.1989 15 15.5 15 15.5V15L15.5 3.5C15.3011 3.4998 14.6406 3.64061 14.5 3.5C14.3594 3.35939 3.0002 3.69885 3 3.5V4.49999C3.0002 4.30114 3.07928 4.11049 3.21989 3.96988C3.3605 3.82927 3.55115 3.75019 3.75 3.74999H7.1625C7.24857 3.32613 7.66512 4.27371 8 4C8.33488 3.72629 9 3.5 9 3.5L10 4C10 4 10.7514 3.32613 10.8375 3.74999H14.25C14.4489 3.75019 14.3594 3.35939 14.5 3.5C14.6406 3.64061 14.9998 4.30114 15 4.49999V15Z" fill="#3B5998"/>
<path d="M9 5.25C9.41421 5.25 9.75 4.91421 9.75 4.5C9.75 4.08579 9.41421 3.75 9 3.75C8.58579 3.75 8.25 4.08579 8.25 4.5C8.25 4.91421 8.58579 5.25 9 5.25Z" fill="white"/>
<path d="M4.5 12.75H13.5V14.25H4.5V12.75ZM7.5 8.8725L9.594 10.968L12.543 8.01675L13.5 9V6H10.5L11.4825 6.95625L9.59325 8.8455L7.5 6.75L4.5 9.75L5.5605 10.8105L7.5 8.8725Z" fill="white"/>
</svg>
