<svg width="12" height="13" viewBox="0 0 12 13" fill="none" xmlns="http://www.w3.org/2000/svg">
<path d="M1.6499 11C1.4499 11 1.2749 10.925 1.1249 10.775C0.974902 10.625 0.899902 10.45 0.899902 10.25V2.75C0.899902 2.55 0.974902 2.375 1.1249 2.225C1.2749 2.075 1.4499 2 1.6499 2H10.3499C10.5499 2 10.7249 2.075 10.8749 2.225C11.0249 2.375 11.0999 2.55 11.0999 2.75V10.25C11.0999 10.45 11.0249 10.625 10.8749 10.775C10.7249 10.925 10.5499 11 10.3499 11H1.6499ZM1.6499 10.25H10.3499V2.75H1.6499V10.25ZM2.4999 9H4.9999V8H2.4999V9ZM7.2749 8L9.7499 5.525L9.0374 4.8125L7.2749 6.5875L6.5624 5.875L5.8624 6.5875L7.2749 8ZM2.4999 7H4.9999V6H2.4999V7ZM2.4999 5H4.9999V4H2.4999V5ZM1.6499 10.25V2.75V10.25Z" fill="#888888"/>
</svg>
