<svg width="102" height="102" viewBox="0 0 102 102" fill="none" xmlns="http://www.w3.org/2000/svg">
<path d="M48.7858 0.600109C46.4936 2.07953 46.4139 5.69811 48.6263 7.17753C49.2841 7.61736 49.7625 7.71732 51.4567 7.85726C56.3202 8.2771 58.0144 8.47702 60.1272 8.95683C69.4754 11.056 78.3253 16.5139 84.2053 23.831C85.6205 25.5703 87.4741 28.2093 87.4741 28.4692C87.4741 28.5491 85.3813 28.6291 82.8499 28.6291C80.0594 28.6291 77.8868 28.7291 77.4084 28.849C76.3321 29.1489 75.0165 30.4884 74.7176 31.6079C74.2591 33.3673 75.1561 35.4264 76.7506 36.2061C77.6077 36.606 77.8868 36.626 84.6238 36.626C90.9423 36.626 91.7396 36.586 93.1548 36.2261C96.9619 35.2465 99.9916 32.4476 101.387 28.6291L101.925 27.1297L101.985 19.9325C102.025 15.0145 101.985 12.4954 101.825 11.9756C101.566 11.116 100.609 9.93645 99.852 9.55659C97.9186 8.57698 95.5267 9.39666 94.4305 11.4359C94.2112 11.8157 94.1315 13.3751 94.0518 17.8134L93.9521 23.6711L92.9555 22.2116C84.006 9.01681 68.7778 0.540131 53.2905 0.100304L49.7027 0.000343323L48.7858 0.600109Z" fill="#176091"/>
<path d="M34.8555 2.55934C31.487 4.01877 31.7262 8.83688 35.2342 10.0164C35.6129 10.1364 36.0913 10.2363 36.3305 10.2363C37.7058 10.2363 39.3203 9.21673 39.9781 7.95722C40.3967 7.15754 40.3967 5.31826 39.998 4.53856C39.0014 2.6593 36.6893 1.75965 34.8555 2.55934Z" fill="#176091"/>
<path d="M22.3942 9.07697C20.8196 9.41684 19.3247 11.1961 19.3047 12.7355C19.2848 17.1538 25.2844 18.4533 26.9786 14.3949C28.1746 11.476 25.5036 8.37725 22.3942 9.07697Z" fill="#176091"/>
<path d="M11.242 19.7328C9.18898 20.8523 8.41163 23.0915 9.40824 25.0307C9.64742 25.5105 10.1856 26.1903 10.6042 26.5101C11.3217 27.0899 11.5011 27.1299 12.9362 27.1299C14.3913 27.1299 14.5507 27.0899 15.2683 26.5101C16.4044 25.5705 16.823 24.7508 16.823 23.3314C16.823 21.9319 16.4044 21.0923 15.2683 20.1526C14.6105 19.6328 14.3116 19.5329 13.1754 19.4729C12.2187 19.4329 11.6606 19.5129 11.242 19.7328Z" fill="#176091"/>
<path d="M34.1026 28.3086C32.3087 28.9083 30.7539 30.5277 29.5979 33.0467C25.2925 42.3831 31.7705 57.5371 44.0088 66.7735C50.2077 71.4517 56.3867 73.8307 62.466 73.8707C65.4359 73.8907 66.9906 73.5708 69.2828 72.4913C74.2659 70.1322 75.402 65.594 71.894 62.2153C70.2994 60.6759 68.5852 59.4164 67.1501 58.7566C66.0738 58.2568 65.5954 58.1369 64.3596 58.1369C62.1671 58.1169 61.3698 58.5567 58.5793 61.3156C57.3036 62.5751 56.1276 63.6147 55.9681 63.6147C55.4898 63.6147 52.5199 61.7755 50.4071 60.1561C48.2345 58.4967 44.2082 54.5583 42.5937 52.5191C41.318 50.8797 39.7434 48.5606 38.9261 47.0812L38.3481 46.0416L40.6802 43.6626C43.4109 40.9036 44.0288 39.8441 44.0288 37.8848C44.0288 37.1051 43.8693 36.2255 43.6102 35.5257C42.7133 33.1067 39.6238 29.3482 37.9295 28.5885C36.7535 28.0687 35.1789 27.9687 34.1026 28.3086Z" fill="#176091"/>
<path d="M4.8755 32.7065C3.34072 33.2863 2.34411 34.7257 2.34411 36.3851C2.32418 38.0844 3.12147 39.3239 4.65625 40.0436C6.29069 40.8033 8.22411 40.2835 9.42004 38.7641C9.93827 38.1244 10.0379 37.8045 10.0977 36.665C10.1376 35.5654 10.0778 35.1855 9.69909 34.5258C8.72241 32.8665 6.6096 32.0668 4.8755 32.7065Z" fill="#176091"/>
<path d="M2.56184 47.2815C1.58516 47.6013 0.429095 48.8408 0.150045 49.8604C-0.547581 52.4994 1.26625 54.9185 3.95709 54.9185C5.452 54.9185 6.48848 54.3587 7.2459 53.1192C9.21918 49.9404 6.1297 46.0819 2.56184 47.2815Z" fill="#176091"/>
<path d="M96.7418 47.2612C95.6854 47.6411 95.0875 48.2009 94.5692 49.2605C93.9314 50.54 93.9115 51.4196 94.5294 52.7391C95.3266 54.4584 97.1604 55.3381 98.9543 54.8583C100.967 54.3185 101.924 53.059 101.924 50.9798C101.924 49.8202 101.844 49.5403 101.326 48.8006C101.007 48.3408 100.389 47.781 99.9509 47.5611C99.034 47.0813 97.579 46.9414 96.7418 47.2612Z" fill="#176091"/>
<path d="M94.1516 61.9956C92.5969 62.7154 91.8594 63.8949 91.8594 65.6742C91.8594 66.9937 92.4573 68.0933 93.6134 68.9129C94.3509 69.4327 94.6698 69.5127 95.7063 69.5127C98.3971 69.5127 100.071 67.3335 99.5532 64.5147C99.4735 64.1348 99.1346 63.4751 98.7758 63.0752C97.56 61.6958 95.7262 61.2559 94.1516 61.9956Z" fill="#176091"/>
<path d="M8.7646 65.8142C4.99742 66.8138 2.0076 69.6127 0.612343 73.4112L0.0741748 74.9106L0.0143783 82.1078C-0.0254861 87.0858 0.0143783 89.5449 0.173836 90.0647C0.532615 91.2642 1.62888 92.3638 2.88461 92.7236C3.86129 93.0035 4.06061 93.0035 5.01735 92.7236C6.07376 92.4238 7.01057 91.6441 7.56867 90.6045C7.78793 90.2246 7.86766 88.6652 7.94738 84.227L8.04704 78.3693L9.04365 79.8287C11.6348 83.6472 16.0797 88.4053 19.7074 91.2242C28.4576 98.0615 39.4801 102 49.805 102C52.2367 102 52.3563 101.98 53.2333 101.42C55.5056 99.9808 55.5853 96.3422 53.3728 94.8628C52.715 94.423 52.2367 94.323 50.5424 94.1831C45.679 93.7632 43.9848 93.5633 41.8719 93.0835C32.5437 90.9843 23.6739 85.5065 17.7939 78.2093C16.3787 76.47 14.525 73.831 14.525 73.5711C14.525 73.4912 16.6179 73.4112 19.1692 73.4112C21.9398 73.4112 24.1124 73.3113 24.5907 73.1913C25.6671 72.8914 26.9826 71.5519 27.2816 70.4324C27.74 68.6731 26.8431 66.6139 25.2485 65.8342C24.3914 65.4343 24.1323 65.4143 17.2956 65.4343C10.9771 65.4343 10.0801 65.4743 8.7646 65.8142Z" fill="#176091"/>
<path d="M87.3183 75.1506C86.0825 75.7503 85.0859 77.3297 85.0859 78.7092C85.0859 80.1286 86.0028 81.548 87.3383 82.2278C88.5541 82.8675 90.3879 82.7076 91.4044 81.8879C92.3612 81.1282 93.0588 79.7687 93.0588 78.7092C93.0389 77.2097 91.9227 75.5304 90.6071 75.0306C89.7899 74.7107 88.0758 74.7707 87.3183 75.1506Z" fill="#176091"/>
<path d="M77.0142 85.527C74.443 86.8665 73.9845 90.1052 76.0774 92.0844C77.3331 93.264 79.6453 93.3439 81.0405 92.2844C84.1101 89.9453 82.5155 85.2071 78.6686 85.2071C78.0906 85.2071 77.3531 85.3471 77.0142 85.527Z" fill="#176091"/>
<path d="M64.1552 92.1039C61.584 93.2634 60.8465 96.3022 62.6204 98.3415C64.5738 100.581 67.9423 100.141 69.1582 97.5018C70.3143 95.0028 68.6599 92.1239 65.9292 91.884C65.2116 91.824 64.6336 91.904 64.1552 92.1039Z" fill="#176091"/>
</svg>
