<svg width="16" height="16" viewBox="0 0 16 16" fill="none" xmlns="http://www.w3.org/2000/svg">
<path d="M14.6667 10.9249C13.6333 10.9249 12.625 10.7583 11.6917 10.4499C11.6089 10.4199 11.5213 10.4058 11.4333 10.4083C11.2167 10.4083 11.0083 10.4916 10.8417 10.6499L9.00833 12.4833C6.64619 11.2753 4.72467 9.35375 3.51667 6.9916L5.35 5.15827C5.58333 4.92494 5.65 4.59994 5.55833 4.30827C5.24221 3.34832 5.08185 2.34393 5.08333 1.33327C5.08333 0.874935 4.70833 0.499935 4.25 0.499935H1.33333C0.875 0.499935 0.5 0.874935 0.5 1.33327C0.5 9.15827 6.84167 15.4999 14.6667 15.4999C15.125 15.4999 15.5 15.1249 15.5 14.6666V11.7583C15.5 11.2999 15.125 10.9249 14.6667 10.9249ZM2.19167 2.1666H3.44167C3.49614 2.89716 3.62457 3.6203 3.825 4.32494L2.825 5.32494C2.48333 4.32494 2.26667 3.2666 2.19167 2.1666ZM13.8333 13.8083C12.7333 13.7333 11.675 13.5166 10.6667 13.1833L11.6583 12.1916C12.3667 12.3916 13.0917 12.5166 13.825 12.5666V13.8083H13.8333ZM13 5.49994H10.8417L15.025 1.3166L13.85 0.141602L9.66667 4.32494V2.1666H8V7.1666H13V5.49994Z" fill="#176091"/>
</svg>
