<svg width="12" height="7" viewBox="0 0 12 7" fill="none" xmlns="http://www.w3.org/2000/svg">
<path d="M11.5 1.5C11.5 2.05 11.05 2.5 10.5 2.5C10.4137 2.50135 10.3277 2.48954 10.245 2.465L8.465 4.24C8.49 4.32 8.5 4.41 8.5 4.5C8.5 5.05 8.05 5.5 7.5 5.5C6.95 5.5 6.5 5.05 6.5 4.5C6.5 4.41 6.51 4.32 6.535 4.24L5.26 2.965C5.18 2.99 5.09 3 5 3C4.91 3 4.82 2.99 4.74 2.965L2.465 5.245C2.49 5.325 2.5 5.41 2.5 5.5C2.5 6.05 2.05 6.5 1.5 6.5C0.95 6.5 0.5 6.05 0.5 5.5C0.5 4.95 0.95 4.5 1.5 4.5C1.59 4.5 1.675 4.51 1.755 4.535L4.035 2.26C4.01 2.18 4 2.09 4 2C4 1.45 4.45 1 5 1C5.55 1 6 1.45 6 2C6 2.09 5.99 2.18 5.965 2.26L7.24 3.535C7.32 3.51 7.41 3.5 7.5 3.5C7.59 3.5 7.68 3.51 7.76 3.535L9.535 1.755C9.51046 1.67227 9.49866 1.58628 9.5 1.5C9.5 0.95 9.95 0.5 10.5 0.5C11.05 0.5 11.5 0.95 11.5 1.5Z" fill="#888888"/>
</svg>
