<svg width="16" height="8" viewBox="0 0 16 8" fill="none" xmlns="http://www.w3.org/2000/svg">
<path d="M15.3346 1.33333C15.3346 2.06667 14.7346 2.66667 14.0013 2.66667C13.8863 2.66846 13.7716 2.65272 13.6613 2.62L11.288 4.98667C11.3213 5.09333 11.3346 5.21333 11.3346 5.33333C11.3346 6.06667 10.7346 6.66667 10.0013 6.66667C9.26797 6.66667 8.66797 6.06667 8.66797 5.33333C8.66797 5.21333 8.6813 5.09333 8.71463 4.98667L7.01464 3.28667C6.90797 3.32 6.78797 3.33333 6.66797 3.33333C6.54797 3.33333 6.42797 3.32 6.3213 3.28667L3.28797 6.32667C3.3213 6.43333 3.33464 6.54667 3.33464 6.66667C3.33464 7.4 2.73464 8 2.0013 8C1.26797 8 0.667969 7.4 0.667969 6.66667C0.667969 5.93333 1.26797 5.33333 2.0013 5.33333C2.1213 5.33333 2.23464 5.34667 2.3413 5.38L5.3813 2.34667C5.34797 2.24 5.33464 2.12 5.33464 2C5.33464 1.26667 5.93464 0.666667 6.66797 0.666667C7.4013 0.666667 8.0013 1.26667 8.0013 2C8.0013 2.12 7.98797 2.24 7.95464 2.34667L9.65463 4.04667C9.7613 4.01333 9.8813 4 10.0013 4C10.1213 4 10.2413 4.01333 10.348 4.04667L12.7146 1.67333C12.6819 1.56303 12.6662 1.44838 12.668 1.33333C12.668 0.6 13.268 0 14.0013 0C14.7346 0 15.3346 0.6 15.3346 1.33333Z" fill="#888888"/>
</svg>
