<svg width="18" height="14" viewBox="0 0 18 14" fill="none" xmlns="http://www.w3.org/2000/svg">
<path d="M9.2625 9.7375L11.355 7.645C11.5875 7.4125 11.4225 7.0075 11.0925 7.0075H9.75V1C9.75 0.5875 9.4125 0.25 9 0.25C8.5875 0.25 8.25 0.5875 8.25 1V7H6.9075C6.57 7 6.405 7.405 6.645 7.6375L8.7375 9.73C8.88 9.88 9.12 9.88 9.2625 9.7375ZM15.75 0.25H11.9925C11.5875 0.25 11.25 0.5875 11.25 0.9925C11.25 1.405 11.5875 1.735 11.9925 1.735H15C15.4125 1.735 15.75 2.0725 15.75 2.485V11.5075C15.75 11.92 15.4125 12.2575 15 12.2575H3C2.5875 12.2575 2.25 11.92 2.25 11.5075V2.4925C2.25 2.08 2.5875 1.7425 3 1.7425H6.0075C6.4125 1.7425 6.75 1.405 6.75 1C6.75 0.5875 6.4125 0.25 6.0075 0.25H2.25C1.425 0.25 0.75 0.925 0.75 1.75V12.25C0.75 13.075 1.425 13.75 2.25 13.75H15.75C16.575 13.75 17.25 13.075 17.25 12.25V1.75C17.25 0.925 16.575 0.25 15.75 0.25Z" fill="#888888"/>
</svg>
