<svg width="81" height="13" viewBox="0 0 81 13" fill="none" xmlns="http://www.w3.org/2000/svg">
<path d="M3.63636 9.95455V2.45455H4.90909V9.95455H3.63636ZM0.522727 6.84091V5.56818H8.02273V6.84091H0.522727ZM15.9332 12H14.456L18.7287 0.363636H20.1832L24.456 12H22.9787L19.5014 2.20455H19.4105L15.9332 12ZM16.4787 7.45455H22.4332V8.70455H16.4787V7.45455ZM29.3821 12.1818C28.6548 12.1818 28.0128 11.9981 27.456 11.6307C26.8991 11.2595 26.4635 10.7367 26.1491 10.0625C25.8348 9.38447 25.6776 8.58333 25.6776 7.65909C25.6776 6.74242 25.8348 5.94697 26.1491 5.27273C26.4635 4.59848 26.901 4.07765 27.4616 3.71023C28.0223 3.3428 28.67 3.15909 29.4048 3.15909C29.973 3.15909 30.4219 3.25379 30.7514 3.44318C31.0848 3.62879 31.3385 3.84091 31.5128 4.07955C31.6908 4.31439 31.8291 4.50758 31.9276 4.65909H32.0412V0.363636H33.3821V12H32.0866V10.6591H31.9276C31.8291 10.8182 31.6889 11.0189 31.5071 11.2614C31.3253 11.5 31.0658 11.714 30.7287 11.9034C30.3916 12.089 29.9427 12.1818 29.3821 12.1818ZM29.5639 10.9773C30.1018 10.9773 30.5563 10.8371 30.9276 10.5568C31.2988 10.2727 31.581 9.88068 31.7741 9.38068C31.9673 8.87689 32.0639 8.29545 32.0639 7.63636C32.0639 6.98485 31.9692 6.41477 31.7798 5.92614C31.5904 5.43371 31.3101 5.05114 30.9389 4.77841C30.5677 4.50189 30.1094 4.36364 29.5639 4.36364C28.9957 4.36364 28.5223 4.50947 28.1435 4.80114C27.7685 5.08902 27.4863 5.48106 27.2969 5.97727C27.1113 6.4697 27.0185 7.02273 27.0185 7.63636C27.0185 8.25758 27.1132 8.82197 27.3026 9.32955C27.4957 9.83333 27.7798 10.2348 28.1548 10.5341C28.5336 10.8295 29.0033 10.9773 29.5639 10.9773ZM39.3196 12.1818C38.5923 12.1818 37.9503 11.9981 37.3935 11.6307C36.8366 11.2595 36.401 10.7367 36.0866 10.0625C35.7723 9.38447 35.6151 8.58333 35.6151 7.65909C35.6151 6.74242 35.7723 5.94697 36.0866 5.27273C36.401 4.59848 36.8385 4.07765 37.3991 3.71023C37.9598 3.3428 38.6075 3.15909 39.3423 3.15909C39.9105 3.15909 40.3594 3.25379 40.6889 3.44318C41.0223 3.62879 41.276 3.84091 41.4503 4.07955C41.6283 4.31439 41.7666 4.50758 41.8651 4.65909H41.9787V0.363636H43.3196V12H42.0241V10.6591H41.8651C41.7666 10.8182 41.6264 11.0189 41.4446 11.2614C41.2628 11.5 41.0033 11.714 40.6662 11.9034C40.3291 12.089 39.8802 12.1818 39.3196 12.1818ZM39.5014 10.9773C40.0393 10.9773 40.4938 10.8371 40.8651 10.5568C41.2363 10.2727 41.5185 9.88068 41.7116 9.38068C41.9048 8.87689 42.0014 8.29545 42.0014 7.63636C42.0014 6.98485 41.9067 6.41477 41.7173 5.92614C41.5279 5.43371 41.2476 5.05114 40.8764 4.77841C40.5052 4.50189 40.0469 4.36364 39.5014 4.36364C38.9332 4.36364 38.4598 4.50947 38.081 4.80114C37.706 5.08902 37.4238 5.48106 37.2344 5.97727C37.0488 6.4697 36.956 7.02273 36.956 7.63636C36.956 8.25758 37.0507 8.82197 37.2401 9.32955C37.4332 9.83333 37.7173 10.2348 38.0923 10.5341C38.4711 10.8295 38.9408 10.9773 39.5014 10.9773ZM50.4616 12V3.27273H51.8026V12H50.4616ZM51.1435 1.81818C50.8821 1.81818 50.6567 1.72917 50.4673 1.55114C50.2817 1.37311 50.1889 1.15909 50.1889 0.909091C50.1889 0.659091 50.2817 0.445076 50.4673 0.267045C50.6567 0.089015 50.8821 0 51.1435 0C51.4048 0 51.6283 0.089015 51.8139 0.267045C52.0033 0.445076 52.098 0.659091 52.098 0.909091C52.098 1.15909 52.0033 1.37311 51.8139 1.55114C51.6283 1.72917 51.4048 1.81818 51.1435 1.81818ZM58.054 3.27273V4.40909H53.5312V3.27273H58.054ZM54.8494 1.18182H56.1903V9.5C56.1903 9.87879 56.2453 10.1629 56.3551 10.3523C56.4688 10.5379 56.6127 10.6629 56.7869 10.7273C56.965 10.7879 57.1525 10.8182 57.3494 10.8182C57.4972 10.8182 57.6184 10.8106 57.7131 10.7955C57.8078 10.7765 57.8835 10.7614 57.9403 10.75L58.2131 11.9545C58.1222 11.9886 57.9953 12.0227 57.8324 12.0568C57.6695 12.0947 57.4631 12.1136 57.2131 12.1136C56.8343 12.1136 56.4631 12.0322 56.0994 11.8693C55.7396 11.7064 55.4403 11.4583 55.2017 11.125C54.9669 10.7917 54.8494 10.3712 54.8494 9.86364V1.18182ZM63.6364 12.1818C62.7955 12.1818 62.0701 11.9962 61.4602 11.625C60.8542 11.25 60.3864 10.7273 60.0568 10.0568C59.7311 9.38258 59.5682 8.59848 59.5682 7.70455C59.5682 6.81061 59.7311 6.02273 60.0568 5.34091C60.3864 4.6553 60.8447 4.12121 61.4318 3.73864C62.0227 3.35227 62.7121 3.15909 63.5 3.15909C63.9545 3.15909 64.4034 3.23485 64.8466 3.38636C65.2898 3.53788 65.6932 3.78409 66.0568 4.125C66.4205 4.46212 66.7102 4.90909 66.9261 5.46591C67.142 6.02273 67.25 6.70833 67.25 7.52273V8.09091H60.5227V6.93182H65.8864C65.8864 6.43939 65.7879 6 65.5909 5.61364C65.3977 5.22727 65.1212 4.92235 64.7614 4.69886C64.4053 4.47538 63.9848 4.36364 63.5 4.36364C62.9659 4.36364 62.5038 4.49621 62.1136 4.76136C61.7273 5.02273 61.4299 5.36364 61.2216 5.78409C61.0133 6.20455 60.9091 6.6553 60.9091 7.13636V7.90909C60.9091 8.56818 61.0227 9.12689 61.25 9.58523C61.4811 10.0398 61.8011 10.3864 62.2102 10.625C62.6193 10.8598 63.0947 10.9773 63.6364 10.9773C63.9886 10.9773 64.3068 10.928 64.5909 10.8295C64.8788 10.7273 65.1269 10.5758 65.3352 10.375C65.5436 10.1705 65.7045 9.91667 65.8182 9.61364L67.1136 9.97727C66.9773 10.4167 66.7481 10.803 66.4261 11.1364C66.1042 11.4659 65.7064 11.7235 65.233 11.9091C64.7595 12.0909 64.2273 12.1818 63.6364 12.1818ZM69.2898 12V3.27273H70.5852V4.63636H70.6989C70.8807 4.17045 71.1742 3.80871 71.5795 3.55114C71.9848 3.28977 72.4716 3.15909 73.0398 3.15909C73.6155 3.15909 74.0947 3.28977 74.4773 3.55114C74.8636 3.80871 75.1648 4.17045 75.3807 4.63636H75.4716C75.6951 4.18561 76.0303 3.82765 76.4773 3.5625C76.9242 3.29356 77.4602 3.15909 78.0852 3.15909C78.8655 3.15909 79.5038 3.40341 80 3.89205C80.4962 4.37689 80.7443 5.13258 80.7443 6.15909V12H79.4034V6.15909C79.4034 5.51515 79.2273 5.05492 78.875 4.77841C78.5227 4.50189 78.108 4.36364 77.6307 4.36364C77.017 4.36364 76.5417 4.54924 76.2045 4.92045C75.8674 5.28788 75.6989 5.75379 75.6989 6.31818V12H74.3352V6.02273C74.3352 5.52652 74.1742 5.12689 73.8523 4.82386C73.5303 4.51705 73.1155 4.36364 72.608 4.36364C72.2595 4.36364 71.9337 4.45644 71.6307 4.64205C71.3314 4.82765 71.089 5.08523 70.9034 5.41477C70.7216 5.74053 70.6307 6.11742 70.6307 6.54545V12H69.2898Z" fill="#3B5998"/>
</svg>
