<svg width="14" height="12" viewBox="0 0 14 12" fill="none" xmlns="http://www.w3.org/2000/svg">
<path d="M12.832 5.16706H2.9487L5.9737 1.53373C6.11515 1.36355 6.1832 1.14414 6.16288 0.923789C6.14257 0.703434 6.03555 0.500175 5.86536 0.358726C5.69518 0.217277 5.47578 0.149225 5.25543 0.169542C5.03507 0.189858 4.83181 0.296879 4.69036 0.467059L0.523698 5.46706C0.495665 5.50683 0.470597 5.54861 0.448698 5.59206C0.448698 5.63373 0.448698 5.65873 0.390365 5.70039C0.352593 5.79594 0.332816 5.89765 0.332031 6.00039C0.332816 6.10313 0.352593 6.20484 0.390365 6.30039C0.390365 6.34206 0.390364 6.36706 0.448698 6.40873C0.470597 6.45218 0.495665 6.49396 0.523698 6.53373L4.69036 11.5337C4.76872 11.6278 4.86683 11.7034 4.97774 11.7553C5.08864 11.8071 5.20961 11.8339 5.33203 11.8337C5.52674 11.8341 5.71544 11.7663 5.86536 11.6421C5.94975 11.5721 6.0195 11.4862 6.07062 11.3892C6.12175 11.2923 6.15325 11.1862 6.16331 11.077C6.17337 10.9679 6.16181 10.8578 6.12927 10.7532C6.09673 10.6485 6.04387 10.5513 5.9737 10.4671L2.9487 6.83373H12.832C13.053 6.83373 13.265 6.74593 13.4213 6.58965C13.5776 6.43337 13.6654 6.22141 13.6654 6.00039C13.6654 5.77938 13.5776 5.56742 13.4213 5.41114C13.265 5.25486 13.053 5.16706 12.832 5.16706Z" fill="black"/>
</svg>
