<svg width="52" height="28" viewBox="0 0 52 28" fill="none" xmlns="http://www.w3.org/2000/svg">
<path d="M51.6654 4.66667C51.6654 7.23333 49.5654 9.33333 46.9987 9.33333C46.596 9.33961 46.1948 9.28454 45.8087 9.17L37.502 17.4533C37.6187 17.8267 37.6654 18.2467 37.6654 18.6667C37.6654 21.2333 35.5654 23.3333 32.9987 23.3333C30.432 23.3333 28.332 21.2333 28.332 18.6667C28.332 18.2467 28.3787 17.8267 28.4954 17.4533L22.5454 11.5033C22.172 11.62 21.752 11.6667 21.332 11.6667C20.912 11.6667 20.492 11.62 20.1187 11.5033L9.50203 22.1433C9.6187 22.5167 9.66537 22.9133 9.66537 23.3333C9.66537 25.9 7.56537 28 4.9987 28C2.43203 28 0.332031 25.9 0.332031 23.3333C0.332031 20.7667 2.43203 18.6667 4.9987 18.6667C5.4187 18.6667 5.81536 18.7133 6.1887 18.83L16.8287 8.21333C16.712 7.84 16.6654 7.42 16.6654 7C16.6654 4.43333 18.7654 2.33333 21.332 2.33333C23.8987 2.33333 25.9987 4.43333 25.9987 7C25.9987 7.42 25.952 7.84 25.8354 8.21333L31.7854 14.1633C32.1587 14.0467 32.5787 14 32.9987 14C33.4187 14 33.8387 14.0467 34.212 14.1633L42.4954 5.85667C42.3808 5.47059 42.3258 5.06932 42.332 4.66667C42.332 2.1 44.432 0 46.9987 0C49.5654 0 51.6654 2.1 51.6654 4.66667Z" fill="#888888"/>
</svg>
