<svg width="13" height="13" viewBox="0 0 13 13" fill="none" xmlns="http://www.w3.org/2000/svg">
<path d="M11.927 1.19013L6.99952 6.11763L2.07202 1.19013C1.95351 1.08168 1.79772 1.02314 1.63712 1.0267C1.47651 1.03026 1.32347 1.09564 1.20988 1.20924C1.09628 1.32283 1.0309 1.47587 1.02734 1.63648C1.02378 1.79708 1.08232 1.95287 1.19077 2.07138L6.11577 6.99888L1.18952 11.9251C1.12934 11.9825 1.08123 12.0513 1.04802 12.1275C1.01481 12.2037 0.997171 12.2858 0.996142 12.369C0.995112 12.4521 1.01071 12.5346 1.04202 12.6116C1.07334 12.6886 1.11973 12.7586 1.17847 12.8174C1.23722 12.8763 1.30713 12.9227 1.3841 12.9542C1.46108 12.9856 1.54355 13.0013 1.62668 13.0004C1.70982 12.9995 1.79193 12.982 1.86819 12.9489C1.94446 12.9158 2.01333 12.8677 2.07077 12.8076L6.99952 7.88138L11.927 12.8089C12.0455 12.9173 12.2013 12.9759 12.3619 12.9723C12.5225 12.9688 12.6756 12.9034 12.7892 12.7898C12.9028 12.6762 12.9682 12.5231 12.9717 12.3625C12.9753 12.2019 12.9167 12.0461 12.8083 11.9276L7.88077 7.00014L12.8083 2.07138C12.8685 2.01403 12.9166 1.94522 12.9498 1.869C12.983 1.79279 13.0006 1.7107 13.0017 1.62757C13.0027 1.54444 12.9871 1.46194 12.9558 1.38492C12.9245 1.30791 12.8781 1.23793 12.8193 1.1791C12.7606 1.12027 12.6907 1.07378 12.6137 1.04236C12.5367 1.01094 12.4542 0.99522 12.3711 0.996131C12.288 0.997043 12.2059 1.01456 12.1296 1.04767C12.0533 1.08077 11.9845 1.12878 11.927 1.18888V1.19013Z" fill="#888888"/>
</svg>
